<svg width="10251" height="6893" viewBox="0 0 10251 6893" fill="none" xmlns="http://www.w3.org/2000/svg">
<mask id="mask0_385_324" style="mask-type:alpha" maskUnits="userSpaceOnUse" x="0" y="0" width="10251" height="6893">
<rect x="0.5" y="0.5" width="10249.8" height="6892" fill="#D9D9D9" stroke="black"/>
</mask>
<g mask="url(#mask0_385_324)">
<g filter="url(#filter0_d_385_324)">
<circle cx="5125.38" cy="4841.43" r="1128.72" fill="white"/>
<circle cx="5125.38" cy="4841.43" r="1121.22" stroke="#D9D9D9" stroke-width="15"/>
</g>
<path d="M4715.46 5359.34L4638.15 5113.04C4631.77 5091.92 4640.93 5068.8 4660.86 5057.64L4761.3 5003.04L4878.87 5378.87L4765.28 5391.63C4742.96 5394.42 4722.24 5380.87 4715.46 5359.34ZM5535.68 5359.34L5613 5113.04C5619.77 5091.92 5610.6 5068.8 5590.28 5057.64L5489.84 5003.04L5372.27 5378.87L5485.86 5391.63C5508.18 5394.42 5528.9 5380.87 5535.68 5359.34Z" fill="#1D91F6" fill-opacity="0.3"/>
<path d="M5541.65 4839.86C5537.67 4851.82 5542.85 4864.97 5553.61 4870.95C5595.06 4892.87 5611 4943.49 5590.27 4986.13L5567.96 5031.17C5562.77 5041.93 5552.01 5047.91 5540.85 5047.91C5535.27 5047.91 5529.3 5045.91 5523.72 5042.33C5510.96 5033.96 5507.38 5016.42 5514.15 5002.87L5536.07 4959.03C5542.45 4946.28 5536.87 4931.53 5524.51 4924.75C5488.25 4904.83 5471.11 4861.39 5483.86 4821.53C5495.42 4785.26 5501.4 4747 5501.4 4708.34V4707.54C5501.4 4663.31 5489.44 4619.86 5467.12 4582C5398.57 4465.22 5271.43 4387.11 5126.36 4387.11C4980.89 4387.11 4854.15 4465.22 4785.2 4582C4762.88 4619.86 4750.93 4663.31 4750.93 4707.54V4708.34C4750.93 4747 4756.9 4785.26 4768.46 4821.53C4781.61 4861.78 4764.48 4904.83 4727.81 4924.75C4715.45 4931.53 4709.87 4946.28 4716.25 4959.03L4738.17 5002.87C4744.95 5016.42 4741.36 5033.56 4728.61 5042.33C4723.43 5046.31 4717.45 5047.91 4711.47 5047.91C4700.31 5047.91 4689.55 5041.93 4684.37 5031.17L4662.05 4986.13C4640.92 4943.89 4657.27 4893.67 4698.72 4871.35C4709.48 4865.77 4714.66 4852.62 4710.67 4840.26C4693.53 4787.25 4687.16 4731.86 4691.14 4675.66C4698.72 4573.23 4743.35 4476.78 4815.49 4404.25C4897.99 4320.95 5008.39 4276.31 5125.56 4277.51H5126.36C5242.74 4276.31 5351.54 4320.15 5434.04 4401.46C5516.94 4482.76 5562.38 4591.96 5562.38 4707.94C5562.38 4752.98 5555.2 4797.22 5541.65 4839.86Z" fill="#1460BB"/>
<path d="M4858.54 4930.11L4781.62 4954.02C4760.5 4960.8 4748.94 4983.12 4755.31 5004.24L4872.09 5377.68C4878.86 5398.81 4901.18 5410.36 4922.31 5403.99L4999.23 5380.07C5020.35 5373.3 5031.91 5350.98 5025.53 5329.86L4908.76 4956.41C4902.38 4935.29 4879.66 4923.73 4858.54 4930.11ZM5392.6 4930.11L5469.52 4954.02C5490.64 4960.8 5502.2 4983.12 5495.83 5004.24L5379.05 5377.68C5372.27 5398.81 5349.96 5410.36 5328.83 5403.99L5251.91 5380.07C5230.79 5373.3 5219.23 5350.98 5225.61 5329.86L5342.38 4956.41C5349.16 4935.29 5371.48 4923.73 5392.6 4930.11Z" fill="#1460BB"/>
<circle cx="5125.38" cy="5125.38" r="5125.38" fill="url(#paint0_linear_385_324)"/>
<circle cx="5125.38" cy="5125.38" r="3712.71" fill="url(#paint1_linear_385_324)"/>
<circle cx="5125.38" cy="5125.38" r="2335.53" fill="url(#paint2_linear_385_324)"/>
</g>
<defs>
<filter id="filter0_d_385_324" x="3992.66" y="3712.71" width="2265.44" height="2265.44" filterUnits="userSpaceOnUse" color-interpolation-filters="sRGB">
<feFlood flood-opacity="0" result="BackgroundImageFix"/>
<feColorMatrix in="SourceAlpha" type="matrix" values="0 0 0 0 0 0 0 0 0 0 0 0 0 0 0 0 0 0 127 0" result="hardAlpha"/>
<feOffset dy="4"/>
<feGaussianBlur stdDeviation="2"/>
<feComposite in2="hardAlpha" operator="out"/>
<feColorMatrix type="matrix" values="0 0 0 0 0 0 0 0 0 0 0 0 0 0 0 0 0 0 0.09 0"/>
<feBlend mode="normal" in2="BackgroundImageFix" result="effect1_dropShadow_385_324"/>
<feBlend mode="normal" in="SourceGraphic" in2="effect1_dropShadow_385_324" result="shape"/>
</filter>
<linearGradient id="paint0_linear_385_324" x1="5125.38" y1="0" x2="5125.38" y2="10250.8" gradientUnits="userSpaceOnUse">
<stop stop-color="#1460BB" stop-opacity="0.1"/>
<stop offset="0.514423" stop-color="white" stop-opacity="0"/>
</linearGradient>
<linearGradient id="paint1_linear_385_324" x1="5125.38" y1="1412.68" x2="5125.38" y2="8838.09" gradientUnits="userSpaceOnUse">
<stop stop-color="#1460BB" stop-opacity="0.1"/>
<stop offset="0.288462" stop-color="white" stop-opacity="0"/>
</linearGradient>
<linearGradient id="paint2_linear_385_324" x1="5125.38" y1="2789.86" x2="5125.38" y2="7460.91" gradientUnits="userSpaceOnUse">
<stop stop-color="#1460BB" stop-opacity="0.05"/>
<stop offset="0.341346" stop-color="white" stop-opacity="0"/>
</linearGradient>
</defs>
</svg>
