<svg width="13952" height="8879" viewBox="0 0 13952 8879" fill="none" xmlns="http://www.w3.org/2000/svg">
<mask id="mask0_394_285" style="mask-type:alpha" maskUnits="userSpaceOnUse" x="0" y="0" width="13952" height="8879">
<rect width="13952" height="8879" fill="#D9D9D9"/>
</mask>
<g mask="url(#mask0_394_285)">
<circle cx="6975.62" cy="-820.617" r="5125.38" transform="rotate(-180 6975.62 -820.617)" fill="url(#paint0_linear_394_285)"/>
<circle cx="6975.38" cy="9700.38" r="5125.38" fill="url(#paint1_linear_394_285)"/>
<circle cx="3918.8" cy="3616.57" r="779.805" fill="white"/>
<path d="M3918.8 3561.72C3956.7 3561.72 3987.43 3530.99 3987.43 3493.08C3987.43 3455.17 3956.7 3424.45 3918.8 3424.45C3880.89 3424.45 3850.16 3455.17 3850.16 3493.08C3850.16 3530.99 3880.89 3561.72 3918.8 3561.72Z" fill="#61DAFB"/>
<path d="M3918.8 3745.47C3972.68 3797.87 4025.82 3828.87 4068.62 3828.87C4082.64 3828.87 4095.93 3825.92 4107 3819.28C4145.38 3797.14 4159.4 3741.78 4146.11 3662.82C4143.9 3648.79 4140.95 3634.77 4137.26 3620.01C4152.02 3615.58 4165.3 3611.15 4178.59 3606.73C4253.13 3577.94 4294.46 3538.09 4294.46 3494.55C4294.46 3450.26 4253.13 3410.41 4178.59 3382.37C4165.3 3377.2 4152.02 3372.77 4137.26 3369.08C4140.95 3354.32 4143.9 3340.3 4146.11 3326.28C4158.66 3245.83 4144.64 3189.74 4106.26 3167.6C4095.19 3160.96 4081.91 3158.01 4067.88 3158.01C4025.82 3158.01 3971.94 3189 3918.07 3241.4C3864.93 3189 3811.79 3158.01 3768.99 3158.01C3754.96 3158.01 3741.68 3160.96 3730.61 3167.6C3692.23 3189.74 3678.21 3245.09 3691.49 3324.06C3693.71 3338.09 3696.66 3352.11 3700.35 3366.87C3685.59 3371.3 3672.3 3375.72 3659.02 3380.15C3584.48 3408.94 3543.15 3448.79 3543.15 3492.33C3543.15 3536.61 3584.48 3576.47 3659.02 3604.51C3672.3 3609.68 3685.59 3614.11 3700.35 3617.8C3696.66 3632.56 3693.71 3646.58 3691.49 3660.6C3678.95 3739.57 3692.97 3795.66 3730.61 3817.06C3741.68 3823.7 3754.96 3826.66 3768.99 3826.66C3811.79 3828.13 3864.93 3797.14 3918.8 3745.47ZM3877.47 3645.84C3890.76 3646.58 3904.78 3646.58 3918.8 3646.58C3932.83 3646.58 3946.85 3646.58 3960.13 3645.84C3946.85 3663.55 3932.83 3679.79 3918.8 3695.29C3904.78 3679.79 3890.76 3663.55 3877.47 3645.84ZM3785.96 3569.82C3793.34 3582.37 3799.98 3594.18 3808.1 3605.99C3785.22 3603.04 3763.82 3599.35 3743.15 3594.92C3749.8 3574.99 3757.18 3554.33 3766.03 3533.66C3771.94 3545.47 3778.58 3558.02 3785.96 3569.82ZM3743.15 3391.96C3763.82 3387.53 3785.22 3383.84 3808.1 3380.89C3800.72 3392.7 3793.34 3404.51 3785.96 3417.05C3778.58 3429.6 3771.94 3441.41 3766.03 3453.95C3756.44 3432.55 3749.06 3411.89 3743.15 3391.96ZM3783.75 3493.07C3793.34 3473.14 3803.67 3453.22 3815.48 3433.29C3826.55 3414.1 3839.1 3394.91 3851.64 3375.72C3873.78 3374.25 3895.93 3373.51 3918.8 3373.51C3942.42 3373.51 3964.56 3374.25 3985.96 3375.72C3999.25 3394.91 4011.06 3414.1 4022.13 3433.29C4033.94 3453.22 4044.27 3473.14 4053.86 3493.07C4044.27 3513 4033.94 3532.92 4022.13 3552.85C4011.06 3572.04 3998.51 3591.23 3985.96 3610.42C3963.82 3611.89 3941.68 3612.63 3918.8 3612.63C3895.19 3612.63 3873.05 3611.89 3851.64 3610.42C3838.36 3591.23 3826.55 3572.04 3815.48 3552.85C3803.67 3532.92 3793.34 3513 3783.75 3493.07ZM4072.31 3453.22L4052.39 3416.32C4045.01 3403.77 4038.36 3391.96 4030.25 3380.15C4053.12 3383.1 4074.53 3386.79 4095.19 3391.22C4088.55 3411.89 4081.17 3432.55 4072.31 3453.22ZM4072.31 3532.92C4081.17 3553.59 4088.55 3574.25 4095.19 3594.18C4074.53 3598.61 4053.12 3602.3 4030.25 3605.25C4037.63 3593.44 4045.01 3581.63 4052.39 3569.09C4059.03 3558.02 4065.67 3545.47 4072.31 3532.92ZM4089.29 3789.02C4083.38 3792.71 4076 3794.18 4067.88 3794.18C4031.72 3794.18 3986.7 3764.66 3942.42 3720.38C3963.82 3697.5 3984.49 3671.67 4005.15 3642.89C4039.84 3639.94 4073.05 3634.77 4104.05 3627.39C4107.74 3640.67 4109.95 3653.96 4112.17 3667.24C4122.5 3729.98 4114.38 3774.99 4089.29 3789.02ZM4127.66 3400.08C4210.32 3423.7 4259.77 3459.86 4259.77 3493.07C4259.77 3521.85 4225.82 3550.64 4166.04 3573.51C4154.23 3577.94 4140.95 3582.37 4127.66 3586.06C4118.07 3555.8 4106.26 3524.8 4091.5 3493.07C4106.26 3461.33 4118.81 3430.34 4127.66 3400.08ZM4068.62 3191.96C4076.74 3191.96 4083.38 3193.43 4090.02 3197.12C4114.38 3211.15 4123.24 3255.43 4112.9 3318.9C4110.69 3331.44 4107.74 3344.73 4104.79 3358.75C4073.79 3352.11 4040.58 3346.94 4005.89 3343.25C3985.96 3314.47 3964.56 3288.64 3943.16 3265.76C3987.44 3222.22 4032.46 3191.96 4068.62 3191.96ZM3960.13 3340.3C3946.85 3339.56 3932.83 3339.56 3918.8 3339.56C3904.78 3339.56 3890.76 3339.56 3877.47 3340.3C3890.76 3322.59 3904.78 3306.35 3918.8 3290.85C3932.83 3306.35 3946.85 3323.32 3960.13 3340.3ZM3748.32 3197.12C3754.22 3193.43 3761.6 3191.96 3769.72 3191.96C3805.89 3191.96 3850.91 3221.48 3895.19 3265.76C3873.78 3288.64 3853.12 3314.47 3832.46 3343.25C3797.77 3346.2 3764.56 3351.37 3733.56 3358.75C3729.87 3345.47 3727.66 3332.18 3725.44 3318.9C3715.11 3256.16 3723.23 3211.88 3748.32 3197.12ZM3709.94 3586.06C3627.28 3562.44 3577.84 3526.28 3577.84 3493.07C3577.84 3464.29 3611.79 3435.5 3671.57 3412.63C3683.37 3408.2 3696.66 3403.77 3709.94 3400.08C3719.54 3430.34 3731.35 3461.33 3746.11 3493.07C3731.35 3524.8 3718.8 3556.54 3709.94 3586.06ZM3725.44 3667.24C3727.66 3654.7 3730.61 3641.41 3733.56 3627.39C3764.56 3634.03 3797.77 3639.2 3832.46 3642.89C3852.38 3671.67 3873.78 3697.5 3895.19 3720.38C3850.91 3763.92 3805.89 3794.18 3769.72 3794.18C3761.6 3794.18 3754.96 3792.71 3748.32 3789.02C3723.23 3774.99 3715.11 3729.98 3725.44 3667.24ZM3694.44 3971.31C3710.68 3951.38 3711.42 3929.24 3702.56 3907.1C3693.71 3884.96 3675.26 3874.63 3652.38 3873.89C3625.07 3873.15 3597.03 3873.89 3569.72 3873.89H3564.55V4065.04H3586.69V3992.71H3621.38C3625.81 3992.71 3629.5 3994.19 3631.71 3997.88L3675.99 4066.51C3676.73 4067.99 3678.95 4070.2 3680.42 4070.2H3709.21C3691.49 4042.9 3674.52 4017.07 3656.81 3990.5C3672.3 3988.28 3685.59 3983.12 3694.44 3971.31ZM3586.69 3969.83V3896.77H3594.81C3611.79 3896.77 3629.5 3896.03 3646.47 3897.51C3666.4 3898.24 3680.42 3913.74 3680.42 3933.67C3680.42 3953.6 3664.19 3969.09 3644.26 3969.83C3626.55 3970.57 3608.83 3969.83 3586.69 3969.83ZM3872.31 3979.43C3860.5 3927.77 3813.27 3914.48 3777.1 3930.72C3749.06 3943.26 3736.51 3967.62 3735.77 3997.88C3735.04 4020.76 3741.68 4041.42 3759.39 4056.92C3779.32 4074.63 3803.67 4076.85 3828.76 4072.42C3842.79 4069.47 3855.33 4062.82 3864.93 4052.49C3861.24 4047.32 3857.55 4042.16 3853.86 4037.73C3833.19 4055.44 3810.31 4061.35 3785.22 4049.54C3768.99 4041.42 3760.87 4021.49 3759.39 4006.73H3873.78V3997.14C3874.52 3990.5 3873.78 3984.59 3872.31 3979.43ZM3760.87 3991.23C3758.65 3969.09 3780.79 3945.48 3805.15 3945.48C3833.19 3944.74 3850.91 3961.71 3851.64 3991.23H3760.87ZM3987.44 3927.03C3976.37 3924.81 3964.56 3924.07 3953.49 3924.81C3935.78 3926.29 3920.28 3934.41 3907.73 3947.69C3911.42 3952.86 3914.38 3958.02 3918.8 3963.93C3920.28 3962.45 3921.76 3960.98 3923.23 3960.24C3935.04 3949.17 3949.06 3943.26 3966.04 3944.74C3979.32 3945.48 3991.87 3949.91 3995.56 3963.19C3998.51 3973.52 3997.77 3984.59 3998.51 3995.66C3996.3 3995.66 3995.56 3994.93 3994.82 3994.19C3977.11 3979.43 3957.18 3976.47 3935.78 3981.64C3915.85 3986.81 3903.31 4002.31 3901.83 4022.23C3900.35 4045.11 3910.69 4062.09 3930.61 4070.2C3943.16 4075.37 3957.18 4075.37 3970.47 4072.42C3980.8 4070.2 3985.23 4064.3 3999.99 4056.18V4065.78H4020.65C4020.65 4036.25 4021.39 4000.09 4020.65 3966.14C4020.65 3944.74 4008.1 3931.46 3987.44 3927.03ZM3997.77 4020.02C3997.03 4022.23 3997.77 4024.45 3997.77 4026.66C3997.77 4042.16 3994.08 4047.32 3979.32 4053.23C3968.99 4056.92 3957.92 4058.4 3946.85 4054.7C3934.3 4051.01 3925.45 4039.94 3925.45 4027.4C3924.71 4014.85 3932.83 4002.31 3945.37 3998.62C3962.35 3992.71 3977.85 3996.4 3991.87 4006.73C3996.3 4010.42 3999.25 4014.11 3997.77 4020.02ZM4112.9 3946.95C4132.09 3941.05 4149.8 3944.74 4163.09 3960.98L4165.3 3962.45C4170.47 3958.02 4174.9 3953.6 4180.8 3948.43C4178.59 3946.22 4177.85 3944.74 4176.37 3942.53C4154.97 3919.65 4112.9 3916.69 4087.07 3935.15C4050.91 3961.71 4051.65 4013.38 4069.36 4040.68C4086.33 4066.51 4110.69 4075.37 4139.47 4071.68C4156.45 4069.47 4170.47 4061.35 4181.54 4047.32C4176.37 4042.9 4171.21 4038.47 4166.04 4033.3C4164.57 4034.78 4163.83 4035.52 4163.09 4036.99C4143.16 4059.13 4109.95 4056.92 4092.24 4033.3C4081.91 4019.28 4079.69 4003.04 4082.64 3986.81C4084.12 3968.36 4093.72 3953.6 4112.9 3946.95ZM4266.41 4047.32C4264.94 4048.06 4264.2 4048.8 4264.2 4048.8C4258.29 4053.23 4252.39 4053.97 4245.75 4051.75C4239.11 4048.8 4238.37 4042.9 4237.63 4036.99V3952.86C4237.63 3951.38 4237.63 3954.33 4238.37 3946.95H4266.41V3924.81H4236.89V3887.91H4214.75V3927.77H4195.56C4194.09 3927.77 4191.87 3929.24 4191.87 3930.72C4191.13 3935.88 4191.87 3939.57 4191.87 3946.95H4215.49V4041.42C4215.49 4053.23 4218.44 4063.56 4228.77 4069.47C4239.84 4076.11 4261.25 4074.63 4270.84 4066.51C4272.32 4065.78 4273.05 4062.82 4273.05 4062.09C4270.84 4057.66 4268.63 4052.49 4266.41 4047.32Z" fill="#61DAFB"/>
<circle cx="8670.17" cy="2176.31" r="779.805" fill="white"/>
<path fill-rule="evenodd" clip-rule="evenodd" d="M8765.73 2643.69L8513.81 2393.38L8653.06 2251.7L9045.83 2643.69H8765.73Z" fill="#02539A"/>
<path fill-rule="evenodd" clip-rule="evenodd" d="M8510.69 2393.58L8760.43 2143.84H9041.18L8652.67 2532.35L8510.69 2393.58Z" fill="#45D1FD" fill-opacity="0.85"/>
<path fill-rule="evenodd" clip-rule="evenodd" d="M8294.52 2175.75L8436.3 2317.44L9041.16 1712.57H8758.96L8294.52 2175.75Z" fill="#45D1FD"/>
<circle cx="9043.23" cy="6352.36" r="779.805" fill="white"/>
<path d="M8667.59 6513.47H8692.48V6415.17L8731.01 6500.86C8735.56 6511.24 8741.78 6514.9 8753.99 6514.9C8766.2 6514.9 8772.18 6511.24 8776.73 6500.86L8815.26 6415.17V6513.47H8840.15V6415.34C8840.15 6405.76 8836.32 6401.13 8828.42 6398.74C8809.51 6392.84 8796.82 6397.95 8791.08 6410.71L8753.27 6495.28L8716.65 6410.71C8711.14 6397.95 8698.22 6392.84 8679.31 6398.73C8671.41 6401.13 8667.58 6405.76 8667.58 6415.33L8667.59 6513.47ZM8860.86 6433.45H8885.74V6487.61C8885.51 6490.55 8886.68 6497.45 8900.32 6497.67C8907.27 6497.78 8954.01 6497.67 8954.45 6497.67V6433.19H8979.39C8979.51 6433.19 8979.37 6521.13 8979.37 6521.49C8979.5 6543.18 8952.46 6547.89 8939.99 6548.25H8861.39V6531.5C8861.53 6531.5 8939.94 6531.52 8940.13 6531.5C8956.16 6529.81 8954.26 6521.85 8954.25 6519.17V6512.64H8901.35C8876.74 6512.41 8861.06 6501.67 8860.86 6489.31C8860.85 6488.18 8861.4 6434 8860.86 6433.45Z" fill="#00618A"/>
<path d="M8998.59 6513.45H9070.15C9078.53 6513.45 9086.68 6511.7 9093.14 6508.67C9103.9 6503.73 9109.17 6497.02 9109.17 6488.24V6470.05C9109.17 6462.87 9103.19 6456.16 9091.46 6451.7C9085.24 6449.3 9077.57 6448.04 9070.15 6448.04H9039.99C9029.94 6448.04 9025.15 6445.01 9023.95 6438.31C9023.72 6437.51 9023.72 6436.87 9023.72 6436.07V6424.74C9023.72 6424.1 9023.72 6423.46 9023.95 6422.67C9025.15 6417.56 9027.78 6416.13 9036.64 6415.33L9039.04 6415.17H9110.13V6398.58H9040.24C9030.18 6398.58 9024.92 6399.21 9020.13 6400.65C9005.29 6405.28 8998.82 6412.62 8998.82 6425.38V6439.9C8998.82 6451.07 9011.52 6460.65 9032.81 6462.88C9035.21 6463.03 9037.6 6463.2 9039.99 6463.2H9065.85C9066.8 6463.2 9067.76 6463.2 9068.48 6463.36C9076.38 6463.99 9079.73 6465.43 9082.13 6468.3C9083.56 6469.74 9084.04 6471.18 9084.04 6472.76V6487.29C9084.04 6489.04 9082.84 6491.27 9080.45 6493.19C9078.3 6495.1 9074.7 6496.38 9069.92 6496.7L9067.28 6496.86H8998.59V6513.45ZM9264.46 6484.57C9264.46 6501.64 9277.15 6511.21 9302.75 6513.14C9305.15 6513.29 9307.54 6513.45 9309.93 6513.45H9374.8V6496.86H9309.46C9294.86 6496.86 9289.36 6493.19 9289.36 6484.41V6398.57H9264.47L9264.46 6484.57ZM9125.05 6485.43V6426.27C9125.05 6411.24 9135.61 6402.12 9156.48 6399.25C9158.63 6398.92 9161.04 6398.77 9163.19 6398.77H9210.44C9212.84 6398.77 9215 6398.92 9217.39 6399.25C9238.26 6402.12 9248.82 6411.24 9248.82 6426.27V6485.43C9248.82 6497.64 9244.34 6504.16 9234.01 6508.41L9258.53 6530.54H9229.63L9209.79 6512.63L9189.82 6513.9H9163.19C9158.63 6513.9 9153.84 6513.26 9148.56 6511.82C9132.73 6507.51 9125.05 6499.19 9125.05 6485.43ZM9151.92 6484C9151.92 6484.8 9152.16 6485.6 9152.4 6486.56C9153.84 6493.44 9160.32 6497.27 9170.15 6497.27H9192.76L9171.99 6478.52H9200.9L9219.01 6494.88C9222.35 6493.09 9224.54 6490.38 9225.31 6486.88C9225.55 6486.08 9225.55 6485.28 9225.55 6484.48V6427.72C9225.55 6427.09 9225.55 6426.28 9225.31 6425.48C9223.87 6419.08 9217.39 6415.41 9207.8 6415.41H9170.14C9159.11 6415.41 9151.91 6420.21 9151.91 6427.72L9151.92 6484Z" fill="#E48E00"/>
<path d="M9396.7 6371.04C9381.4 6370.63 9369.71 6372.05 9359.71 6376.26C9356.87 6377.46 9352.34 6377.49 9351.88 6381.05C9353.44 6382.69 9353.68 6385.13 9354.93 6387.14C9357.31 6391 9361.34 6396.18 9364.93 6398.89C9368.86 6401.85 9372.9 6405.02 9377.12 6407.59C9384.6 6412.16 9392.96 6414.77 9400.18 6419.33C9404.43 6422.04 9408.64 6425.43 9412.79 6428.48C9414.85 6429.97 9416.22 6432.32 9418.89 6433.26V6432.83C9417.49 6431.05 9417.13 6428.6 9415.84 6426.73L9410.18 6421.07C9404.65 6413.73 9397.64 6407.29 9390.16 6401.93C9384.21 6397.66 9370.9 6391.89 9368.41 6384.96L9367.98 6384.53C9372.19 6384.05 9377.14 6382.53 9381.03 6381.48C9387.57 6379.73 9393.42 6380.18 9400.17 6378.44L9409.31 6375.82V6374.09C9405.9 6370.58 9403.46 6365.94 9399.74 6362.77C9390 6354.48 9379.36 6346.19 9368.41 6339.27C9362.34 6335.44 9354.83 6332.95 9348.39 6329.7C9346.24 6328.61 9342.43 6328.04 9341 6326.22C9337.61 6321.91 9335.77 6316.45 9333.16 6311.43C9327.71 6300.92 9322.34 6289.43 9317.5 6278.36C9314.2 6270.82 9312.05 6263.38 9307.93 6256.61C9288.17 6224.13 9266.91 6204.52 9233.96 6185.25C9226.95 6181.15 9218.51 6179.54 9209.6 6177.42L9195.24 6176.55C9192.33 6175.33 9189.29 6171.76 9186.54 6170.03C9175.62 6163.13 9147.63 6148.13 9139.55 6167.86C9134.45 6180.3 9147.18 6192.44 9151.73 6198.75C9154.92 6203.17 9159.02 6208.13 9161.3 6213.11C9162.81 6216.38 9163.06 6219.65 9164.35 6223.11C9167.51 6231.63 9170.27 6240.91 9174.36 6248.78C9176.42 6252.77 9178.71 6256.97 9181.32 6260.53C9182.92 6262.71 9185.67 6263.68 9186.1 6267.05C9183.41 6270.81 9183.26 6276.65 9181.75 6281.41C9174.95 6302.85 9177.51 6329.5 9187.41 6345.37C9190.44 6350.25 9197.59 6360.7 9207.42 6356.68C9216.02 6353.18 9214.1 6342.33 9216.56 6332.75C9217.12 6330.59 9216.77 6328.99 9217.87 6327.54V6327.97L9225.7 6343.63C9231.5 6352.97 9241.78 6362.72 9250.5 6369.31C9255.02 6372.72 9258.58 6378.62 9264.42 6380.62V6380.18H9263.99C9262.85 6378.41 9261.09 6377.69 9259.64 6376.26C9256.23 6372.92 9252.44 6368.78 9249.63 6364.95C9241.7 6354.19 9234.7 6342.4 9228.31 6330.14C9225.26 6324.29 9222.62 6317.83 9220.05 6311.87C9219.05 6309.57 9219.07 6306.09 9217 6304.91C9214.18 6309.27 9210.04 6312.81 9207.86 6317.96C9204.38 6326.2 9203.94 6336.25 9202.65 6346.68L9201.77 6347.11C9195.71 6345.65 9193.58 6339.4 9191.33 6334.05C9185.63 6320.52 9184.57 6298.73 9189.59 6283.15C9190.88 6279.12 9196.74 6266.42 9194.37 6262.7C9193.24 6258.98 9189.5 6256.84 9187.41 6253.99C9184.83 6250.48 9182.24 6245.87 9180.45 6241.81C9175.79 6231.26 9173.61 6219.41 9168.71 6208.74C9166.36 6203.64 9162.4 6198.48 9159.14 6193.95C9155.53 6188.92 9151.49 6185.23 9148.69 6179.16C9147.7 6177 9146.35 6173.54 9147.82 6171.32C9148.28 6169.83 9148.96 6169.2 9150.43 6168.71C9152.96 6166.77 9159.98 6169.36 9162.61 6170.45C9169.59 6173.35 9175.42 6176.11 9181.33 6180.02C9184.17 6181.91 9187.03 6185.54 9190.47 6186.55H9194.38C9200.51 6187.95 9207.37 6186.98 9213.09 6188.72C9223.21 6191.8 9232.27 6196.58 9240.5 6201.77C9265.58 6217.61 9286.08 6240.15 9300.11 6267.04C9302.36 6271.37 9303.35 6275.5 9305.33 6280.09C9309.34 6289.35 9314.39 6298.88 9318.38 6307.94C9322.36 6316.97 9326.24 6326.09 9331.87 6333.61C9334.83 6337.56 9346.26 6339.68 9351.45 6341.88C9355.09 6343.42 9361.05 6345.02 9364.5 6347.09C9371.08 6351.07 9377.47 6355.8 9383.65 6360.15C9386.73 6362.34 9396.22 6367.11 9396.7 6371.04ZM9202.21 6205.28C9199.02 6205.22 9196.76 6205.63 9194.37 6206.15V6206.58H9194.81C9196.33 6209.71 9199.02 6211.72 9200.9 6214.41L9205.26 6223.55L9205.69 6223.12C9208.38 6221.22 9209.61 6218.19 9209.6 6213.55C9208.52 6212.41 9208.36 6210.98 9207.43 6209.63C9206.19 6207.82 9203.78 6206.8 9202.21 6205.28Z" fill="#00618A"/>
<circle cx="4115.7" cy="5792.76" r="779.805" fill="white"/>
<path d="M4461.86 5964.54C4421.76 5985.49 4214.07 6070.48 4169.78 6093.83C4125.49 6117.17 4100.95 6116.57 4066.24 6099.81C4031.52 6083.05 3810.67 5994.47 3770.57 5975.32C3750.82 5965.74 3740.64 5957.96 3740.64 5950.18V5874.17C3740.64 5874.17 4027.93 5811.32 4074.62 5795.16C4121.3 5778.4 4136.86 5777.81 4176.37 5792.17C4215.87 5806.54 4452.28 5849.03 4491.19 5863.39V5938.21C4491.19 5945.99 4482.21 5954.37 4461.86 5964.54Z" fill="#A41E11"/>
<path d="M4461.86 5889.13C4421.76 5910.08 4214.07 5995.07 4169.78 6018.41C4125.49 6041.76 4100.95 6041.16 4066.24 6024.4C4031.52 6007.64 3810.67 5918.46 3770.57 5899.31C3731.07 5880.16 3729.87 5866.99 3768.77 5852.03C3807.68 5836.46 4027.33 5750.28 4074.02 5734.12C4120.7 5717.36 4136.26 5716.76 4175.77 5731.12C4215.27 5745.49 4421.76 5827.49 4460.66 5841.85C4500.76 5856.21 4501.96 5868.19 4461.86 5889.13Z" fill="#D82C20"/>
<path d="M4461.86 5841.25C4421.76 5862.2 4214.07 5947.19 4169.78 5970.53C4125.49 5993.28 4100.95 5993.28 4066.24 5976.52C4031.52 5959.76 3810.67 5870.58 3770.57 5851.43C3750.82 5841.85 3740.64 5834.07 3740.64 5826.29V5750.28C3740.64 5750.28 4027.93 5687.43 4074.62 5671.27C4121.3 5654.51 4136.86 5653.92 4176.37 5668.28C4215.87 5682.64 4452.28 5725.14 4491.19 5739.5V5814.32C4491.19 5822.1 4482.21 5830.48 4461.86 5841.25Z" fill="#A41E11"/>
<path d="M4461.87 5765.25C4421.77 5786.19 4214.08 5871.18 4169.79 5894.53C4125.5 5917.27 4100.96 5917.27 4066.25 5900.51C4031.53 5883.75 3810.68 5794.57 3770.58 5775.42C3730.48 5756.27 3729.88 5743.1 3768.78 5728.14C3807.68 5712.58 4027.34 5626.39 4074.03 5610.23C4120.71 5593.47 4136.27 5592.87 4175.77 5607.24C4215.28 5621.6 4421.77 5703.6 4460.67 5717.96C4500.77 5732.33 4501.97 5744.3 4461.87 5765.25Z" fill="#D82C20"/>
<path d="M4461.87 5712.56C4421.77 5733.5 4214.08 5818.49 4169.79 5841.84C4125.5 5864.58 4100.96 5864.58 4066.25 5847.82C4031.53 5831.66 3810.68 5742.48 3770.58 5723.33C3750.83 5713.75 3740.05 5705.97 3740.05 5698.19V5622.18C3740.05 5622.18 4027.34 5559.34 4074.03 5543.18C4120.71 5526.42 4136.28 5525.82 4175.78 5540.18C4215.28 5554.55 4451.7 5597.04 4490.6 5611.41V5686.22C4491.2 5694 4482.22 5701.78 4461.87 5712.56Z" fill="#A41E11"/>
<path d="M4461.87 5636.55C4421.77 5657.5 4214.08 5742.49 4169.79 5765.83C4125.5 5788.57 4100.96 5788.57 4066.25 5771.82C4031.53 5755.06 3810.68 5666.48 3770.58 5647.32C3730.48 5628.17 3729.88 5615 3768.78 5600.04C3807.68 5584.48 4027.34 5498.29 4074.03 5482.13C4120.71 5465.37 4136.27 5464.78 4175.77 5479.14C4215.28 5493.5 4421.77 5575.5 4460.67 5589.87C4500.77 5604.23 4501.97 5616.2 4461.87 5636.55Z" fill="#D82C20"/>
<path d="M4214.08 5563.52L4149.44 5570.7L4134.48 5605.41L4111.14 5566.51L4036.32 5559.93L4091.98 5539.58L4075.23 5508.45L4127.9 5528.8L4176.97 5512.64L4163.81 5544.96L4214.08 5563.52ZM4130.89 5733.5L4009.39 5683.22L4183.56 5656.89L4130.89 5733.5Z" fill="white"/>
<path d="M3962.71 5655.1C4013.94 5655.1 4055.48 5639.03 4055.48 5619.19C4055.48 5599.36 4013.94 5583.28 3962.71 5583.28C3911.47 5583.28 3869.94 5599.36 3869.94 5619.19C3869.94 5639.03 3911.47 5655.1 3962.71 5655.1Z" fill="white"/>
<path d="M4291.29 5573.1L4394.24 5613.8L4291.29 5654.5V5573.1Z" fill="#7A0C00"/>
<path d="M4177.57 5618.59L4291.29 5573.1V5654.5L4279.92 5659.28L4177.57 5618.59Z" fill="#AD2115"/>
<circle cx="9556.2" cy="4202.07" r="779.805" fill="white"/>
<path d="M9180.54 4202.07V4577.72H9931.85V3826.41H9180.54V4202.07ZM9636.43 4440.8C9639.81 4438.89 9652.43 4431.59 9664.35 4424.67L9685.95 4412.15L9690.49 4418.85C9696.82 4428.49 9710.62 4441.73 9718.98 4446.15C9742.96 4458.8 9775.86 4457.01 9792.08 4442.45C9795.16 4439.86 9797.64 4436.63 9799.33 4432.98C9801.03 4429.33 9801.91 4425.35 9801.9 4421.32L9801.87 4419.85V4419.92C9801.87 4411.21 9800.78 4407.39 9796.24 4400.82C9790.42 4392.49 9778.49 4385.48 9744.62 4370.77C9705.86 4354.08 9689.18 4343.72 9673.9 4327.25C9664.51 4316.58 9657.54 4304 9653.46 4290.38L9653.27 4289.69C9650.42 4279.08 9649.7 4252.47 9651.96 4241.76C9659.94 4204.29 9688.21 4178.21 9729 4170.45C9742.24 4167.95 9773.01 4168.88 9786 4172.11C9805.1 4176.87 9819.62 4185.38 9832.99 4199.22C9839.91 4206.61 9850.18 4220.07 9850.99 4223.32C9851.24 4224.26 9818.56 4246.18 9798.77 4258.48C9798.05 4258.95 9795.17 4255.85 9791.98 4251.09C9782.28 4237 9772.17 4230.93 9756.67 4229.87C9733.88 4228.3 9719.23 4240.23 9719.36 4260.14L9719.32 4261.3C9719.32 4266.02 9720.51 4270.47 9722.61 4274.35L9722.55 4274.19C9727.56 4284.55 9736.89 4290.78 9766.06 4303.4C9819.87 4326.57 9842.88 4341.81 9857.19 4363.5C9873.15 4387.7 9876.75 4426.36 9865.89 4455.1C9854 4486.34 9824.41 4507.57 9782.78 4514.58C9769.91 4516.86 9739.39 4516.52 9725.55 4514.02C9695.38 4508.63 9666.76 4493.73 9649.11 4474.17C9642.19 4466.56 9628.7 4446.62 9629.54 4445.21C9631.71 4443.55 9634.02 4442.07 9636.43 4440.8ZM9345.14 4204.1C9345.14 4187.39 9345.49 4173.42 9345.96 4173.11C9346.33 4172.61 9405.84 4172.36 9477.97 4172.48L9609.29 4172.86L9609.63 4203.51L9609.88 4234.28H9512.06V4512.14H9442.87V4234.28H9345.14V4204.1Z" fill="#1677C7"/>
<circle cx="5960.29" cy="1844.52" r="779.805" fill="white"/>
<path d="M6091.06 2171.24C6091.06 2169.46 6091.66 2167.68 6091.06 2165.9C6089.87 2164.12 6089.28 2162.93 6088.09 2161.75C6085.11 2158.19 6082.13 2155.22 6078.55 2151.66L6043.4 2116.06L6070.81 2088.18L6085.7 2072.16C6088.09 2069.79 6091.06 2065.04 6091.06 2061.48V2059.11C6091.06 2053.77 6088.68 2050.8 6083.32 2049.61L6084.51 2050.21H6080.34C6076.77 2050.21 6066.64 2059.7 6064.25 2062.67C6055.32 2071.57 6049.36 2079.87 6037.44 2088.77V2018.17C6037.44 2011.64 6033.87 2008.68 6027.31 2008.68H6025.53C6018.97 2008.68 6013.61 2011.64 6013.61 2018.17V2171.83C6013.61 2178.36 6018.97 2180.73 6025.53 2180.73H6027.31C6033.87 2180.73 6037.44 2177.76 6037.44 2171.83V2144.54L6055.32 2161.75C6060.68 2167.09 6066.04 2170.64 6070.81 2175.39C6073.19 2177.76 6077.96 2180.73 6081.53 2180.73H6083.32C6089.28 2180.73 6091.06 2177.76 6092.26 2173.02L6091.06 2173.61V2171.24ZM6324.02 2050.21H6321.64C6308.53 2050.21 6296.62 2053.77 6285.89 2061.48C6268.02 2074.53 6257.89 2091.74 6257.89 2114.28V2172.42C6257.89 2178.95 6260.27 2180.73 6266.83 2180.73H6268.61C6275.17 2180.73 6281.72 2178.36 6281.72 2172.42V2117.84C6281.72 2105.98 6284.1 2094.7 6293.04 2085.8C6300.19 2078.69 6309.13 2072.75 6319.26 2072.75C6327 2072.75 6335.94 2070.97 6335.94 2061.48C6335.94 2054.36 6330.58 2050.21 6324.02 2050.21ZM6232.27 2079.87C6225.72 2069.19 6216.78 2060.89 6205.46 2055.55C6184.61 2045.46 6162.56 2044.27 6142.3 2056.14L6139.32 2057.92C6130.98 2062.67 6123.83 2068.6 6118.47 2076.31C6102.98 2098.86 6101.19 2124.37 6114.9 2148.1L6116.09 2150.47C6122.05 2160.56 6129.79 2168.86 6139.92 2174.2C6161.37 2186.07 6184.61 2187.26 6206.05 2175.39L6207.84 2174.2C6213.8 2170.64 6214.99 2164.71 6212.01 2158.78C6210.82 2156.41 6208.44 2154.63 6206.05 2153.44H6204.86C6200.69 2152.85 6189.37 2157.59 6185.2 2159.37C6176.86 2160.56 6167.33 2161.15 6158.99 2158.19L6204.27 2119.03C6210.82 2113.1 6217.97 2106.57 6225.12 2101.23C6231.08 2096.48 6237.04 2089.96 6232.27 2081.65V2079.87ZM6191.16 2101.23L6140.52 2144.54C6138.73 2142.76 6137.54 2140.39 6136.35 2138.61C6132.77 2132.67 6130.39 2125.55 6130.39 2118.44C6129.79 2100.64 6136.35 2085.8 6152.43 2076.91C6164.35 2069.79 6177.46 2068.6 6190.56 2073.35C6197.12 2075.72 6204.86 2079.87 6209.03 2085.8C6203.08 2091.14 6196.52 2095.89 6191.16 2101.23ZM5709.75 2008.68H5707.96C5701.41 2008.68 5697.84 2011.05 5697.84 2017.58V2065.63C5685.92 2054.95 5671.62 2050.8 5654.94 2050.8H5650.17C5638.85 2050.8 5628.13 2052.58 5618 2058.51C5596.55 2070.97 5584.63 2089.36 5584.63 2114.28V2119.03C5584.63 2130.3 5587.61 2139.79 5593.57 2149.88C5606.08 2171.24 5625.74 2181.92 5650.17 2181.92H5654.94C5666.26 2181.92 5678.17 2180.14 5687.71 2174.8C5709.16 2162.34 5721.67 2143.95 5721.67 2119.62V2018.76C5721.67 2011.05 5716.31 2008.68 5709.75 2008.68ZM5691.28 2138.01C5682.34 2152.85 5669.24 2161.15 5651.96 2161.15C5644.81 2161.15 5637.66 2159.37 5631.7 2155.81C5616.21 2147.51 5607.27 2133.86 5607.27 2116.06C5607.27 2109.54 5608.46 2103.6 5611.44 2097.67C5619.79 2080.47 5633.49 2070.97 5652.55 2070.97C5662.09 2070.97 5670.43 2073.94 5677.58 2079.28C5690.09 2088.18 5697.24 2100.04 5697.24 2115.47C5697.84 2123.78 5695.45 2130.89 5691.28 2138.01ZM5802.7 2050.21H5799.12C5787.8 2050.21 5776.48 2051.99 5766.95 2057.92C5745.5 2070.38 5733.58 2088.77 5733.58 2113.69V2118.44C5733.58 2129.71 5736.56 2139.2 5742.52 2149.29C5755.03 2170.64 5774.69 2181.32 5799.72 2181.32H5804.48C5815.8 2181.32 5827.12 2179.54 5837.25 2174.2C5858.7 2161.75 5871.21 2143.35 5871.21 2119.03V2114.28C5871.21 2103.6 5867.64 2094.7 5862.87 2085.8C5849.76 2062.07 5828.91 2050.21 5802.7 2050.21ZM5840.83 2138.01C5831.89 2152.25 5819.38 2161.15 5802.1 2161.15C5794.36 2161.15 5786.61 2159.37 5779.46 2155.22C5764.57 2146.32 5756.22 2133.86 5756.22 2116.66C5756.22 2110.13 5757.42 2104.2 5760.39 2098.26C5768.74 2081.06 5782.44 2071.57 5801.5 2071.57C5810.44 2071.57 5818.19 2073.94 5825.34 2078.69C5838.44 2087.58 5846.19 2100.04 5846.19 2116.06C5846.79 2123.18 5845 2130.89 5840.83 2138.01ZM5986.8 2058.51L5986.2 2059.11C5976.07 2052.58 5964.75 2050.21 5952.84 2050.21H5948.07C5936.75 2050.21 5925.43 2051.99 5915.9 2057.92C5894.45 2070.38 5882.53 2088.77 5882.53 2113.1V2117.84C5882.53 2123.78 5883.73 2129.11 5884.92 2135.05C5894.45 2167.68 5920.07 2186.07 5954.63 2183.7C5964.16 2183.1 5989.78 2180.14 5989.78 2165.9V2163.53C5989.78 2158.19 5985.61 2153.44 5980.84 2152.25L5980.25 2151.07H5976.07L5974.88 2152.85C5969.52 2155.22 5960.58 2159.97 5954.63 2159.97C5947.48 2159.97 5939.73 2159.97 5933.18 2156.41C5915.9 2148.1 5905.77 2134.45 5905.77 2115.47C5905.77 2108.94 5906.96 2103.01 5909.94 2097.08C5918.28 2080.47 5931.99 2069.79 5951.05 2070.38C5954.63 2070.38 5961.18 2072.16 5964.75 2073.94C5967.73 2075.13 5975.48 2079.87 5979.05 2079.87H5980.25L5980.84 2078.69C5986.2 2077.5 5990.37 2073.35 5990.37 2068.01V2065.63C5990.37 2063.26 5989.18 2061.48 5987.99 2059.7L5986.8 2058.51ZM5613.23 1873.41L5613.83 1874.59C5660.9 1954.1 5743.12 1987.32 5833.08 1987.32C6007.06 1987.32 6150.65 1909.6 6216.18 1746.44C6260.27 1748.82 6305.55 1735.77 6327 1693.64L6332.36 1682.96L6321.64 1677.03C6296.02 1662.2 6262.06 1660.42 6233.46 1668.72C6229.89 1637.87 6209.63 1611.18 6185.8 1592.19L6176.26 1584.48L6168.52 1593.97C6152.43 1612.36 6147.67 1643.21 6150.05 1666.94C6151.84 1684.15 6157.2 1701.95 6167.92 1716.19C6159.58 1720.93 6150.65 1727.46 6142.3 1730.43C6125.62 1736.36 6107.15 1742.29 6089.28 1742.29H6049.36V1658.64H5971.9V1510.32H5882.53V1581.51H5733.58V1658.64H5656.13V1741.7H5589.4L5588.21 1750.6C5585.23 1788.57 5590 1825.35 5606.08 1860.36L5613.23 1873.41ZM5971.9 1676.44H6037.44V1741.7H5971.9V1676.44ZM5894.45 1522.18H5959.99V1587.44H5894.45V1522.18ZM5894.45 1599.31H5959.99V1664.57H5894.45V1599.31ZM5894.45 1676.44H5959.99V1741.7H5894.45V1676.44ZM5817 1599.31H5882.53V1664.57H5817V1599.31ZM5817 1676.44H5882.53V1741.7H5817V1676.44ZM5823.55 1861.54C5823.55 1871.63 5815.21 1879.93 5805.08 1879.93C5794.95 1879.93 5786.61 1871.63 5786.61 1861.54C5786.61 1851.46 5794.95 1843.15 5805.08 1843.15C5815.21 1843.74 5823.55 1851.46 5823.55 1861.54ZM5745.5 1599.31H5805.08V1664.57H5745.5V1599.31ZM5745.5 1676.44H5805.08V1741.7H5745.5V1676.44ZM5668.05 1676.44H5733.58V1741.7H5668.05V1676.44ZM5682.34 1901.89C5691.88 1901.89 5701.41 1901.89 5710.35 1901.29C5733.58 1900.11 5753.84 1897.14 5770.52 1892.39C5784.23 1923.84 5809.25 1952.91 5853.94 1974.27L5833.08 1974.86C5738.95 1974.27 5688.3 1942.82 5646.6 1901.29C5659.11 1901.89 5671.02 1901.89 5682.34 1901.89ZM5805.08 1874.59C5812.23 1874.59 5818.19 1868.66 5818.19 1861.54C5818.19 1859.76 5817.59 1857.98 5817 1856.8C5815.8 1858.58 5814.61 1859.76 5812.23 1859.76C5809.25 1859.76 5806.87 1857.39 5806.87 1854.42C5806.87 1852.64 5808.06 1850.86 5809.25 1849.68C5808.65 1849.08 5806.87 1848.49 5805.08 1848.49C5797.93 1848.49 5791.97 1854.42 5791.97 1861.54C5792.57 1868.66 5797.93 1874.59 5805.08 1874.59Z" fill="#019BC6"/>
<circle cx="6333.35" cy="7098.48" r="779.805" fill="white"/>
<path d="M6679.31 6864.48L6369.68 6684.54C6350.15 6673.41 6324.73 6673.41 6305.04 6684.54L5992.11 6864.48C5971.96 6876.08 5957.7 6897.89 5957.7 6921.21V7280.61C5957.7 7303.94 5972.33 7325.75 5992.48 7337.42L6075.16 7384.42C6114.68 7403.9 6128.64 7403.9 6146.62 7403.9C6205.14 7403.9 6238.56 7368.48 6238.56 7306.72V6951.9C6238.56 6946.89 6235.95 6939.44 6231.04 6939.44H6191.56C6186.56 6939.44 6175.36 6946.89 6175.36 6951.9V7306.71C6175.36 7334.09 6150.62 7361.34 6104.38 7338.2L6018.94 7288.91C6015.97 7287.3 6013.87 7284.04 6013.87 7280.61V6921.21C6013.87 6917.83 6017.76 6914.43 6020.76 6912.69L6332.69 6733.06C6335.6 6731.41 6339.89 6731.41 6342.79 6733.06L6650.91 6912.65C6653.86 6914.43 6652.82 6917.72 6652.82 6921.21V7280.61C6652.82 7284.04 6654.11 7287.38 6651.19 7289.03L6341.64 7468.77C6338.99 7470.36 6335.69 7470.36 6332.79 7468.77L6253.39 7421.34C6251 7419.95 6248.16 7419.45 6245.86 7420.73C6223.77 7433.26 6219.7 7434.93 6198.98 7442.12C6193.88 7443.9 6186.36 7446.98 6201.86 7455.67L6305.76 7517.19C6315.71 7522.96 6327.02 7525.95 6338.39 7525.95C6349.92 7525.95 6361.21 7522.96 6371.16 7517.19L6679.3 7337.42C6699.45 7325.67 6709 7303.94 6709 7280.61V6921.21C6709 6897.89 6699.45 6876.14 6679.31 6864.48ZM6434.53 7223.66C6352.19 7223.66 6334.06 7200.93 6328.01 7159.95C6327.31 7155.54 6323.57 7150.26 6319.08 7150.26H6278.84C6273.86 7150.26 6269.86 7156.3 6269.86 7161.27C6269.86 7213.73 6298.36 7277.3 6434.54 7277.3C6533.11 7277.3 6589.63 7238.97 6589.63 7171.13C6589.63 7103.86 6544.22 7086.21 6448.62 7073.54C6351.99 7060.76 6342.17 7054.3 6342.17 7031.64C6342.17 7012.97 6350.49 6988.05 6422.04 6988.05C6485.97 6988.05 6509.53 7001.78 6519.23 7044.91C6520.06 7048.97 6523.76 7051.88 6527.94 7051.88H6568.34C6570.82 7051.88 6573.2 7050.87 6574.94 7049.09C6576.62 7047.18 6577.52 7044.79 6577.29 7042.21C6571.04 6967.95 6521.74 6933.34 6422.03 6933.34C6333.34 6933.34 6280.43 6970.82 6280.43 7033.65C6280.43 7101.81 6333.07 7120.64 6418.21 7129.07C6520.06 7139.06 6527.98 7153.96 6527.98 7174.01C6527.98 7208.83 6500.05 7223.66 6434.53 7223.66Z" fill="#83CD29"/>
</g>
<defs>
<linearGradient id="paint0_linear_394_285" x1="6975.62" y1="-5946" x2="6975.62" y2="4304.77" gradientUnits="userSpaceOnUse">
<stop stop-color="#1460BB" stop-opacity="0.1"/>
<stop offset="0.514423" stop-color="white" stop-opacity="0"/>
</linearGradient>
<linearGradient id="paint1_linear_394_285" x1="6975.38" y1="4575" x2="6975.38" y2="14825.8" gradientUnits="userSpaceOnUse">
<stop stop-color="#1460BB" stop-opacity="0.1"/>
<stop offset="0.514423" stop-color="white" stop-opacity="0"/>
</linearGradient>
</defs>
</svg>
