<svg width="13952" height="8879" viewBox="0 0 13952 8879" fill="none" xmlns="http://www.w3.org/2000/svg">
<mask id="mask0_396_360" style="mask-type:alpha" maskUnits="userSpaceOnUse" x="0" y="0" width="13952" height="8879">
<rect width="13952" height="8879" fill="#D9D9D9"/>
</mask>
<g mask="url(#mask0_396_360)">
<path d="M7096.18 1610.14C7165.02 1610.14 7220.83 1554.34 7220.83 1485.5C7220.83 1416.66 7165.02 1360.86 7096.18 1360.86C7027.34 1360.86 6971.54 1416.66 6971.54 1485.5C6971.54 1554.34 7027.34 1610.14 7096.18 1610.14Z" fill="#61DAFB"/>
<path d="M7096.19 1943.85C7194.03 2039.01 7290.53 2095.3 7368.27 2095.3C7393.73 2095.3 7417.86 2089.94 7437.96 2077.88C7507.65 2037.67 7533.12 1937.15 7508.99 1793.74C7504.97 1768.28 7499.61 1742.81 7492.91 1716.01C7519.72 1707.96 7543.84 1699.92 7567.97 1691.88C7703.33 1639.61 7778.39 1567.24 7778.39 1488.16C7778.39 1407.74 7703.33 1335.37 7567.97 1284.44C7543.84 1275.06 7519.72 1267.02 7492.91 1260.32C7499.61 1233.51 7504.97 1208.05 7508.99 1182.58C7531.78 1036.49 7506.31 934.631 7436.62 894.423C7416.52 882.361 7392.39 877 7366.93 877C7290.53 877 7192.69 933.291 7094.85 1028.45C6998.35 933.291 6901.85 877 6824.12 877C6798.65 877 6774.53 882.361 6754.43 894.423C6684.73 934.631 6659.27 1035.15 6683.39 1178.56C6687.41 1204.02 6692.77 1229.49 6699.47 1256.29C6672.67 1264.34 6648.54 1272.38 6624.42 1280.42C6489.05 1332.69 6414 1405.06 6414 1484.14C6414 1564.56 6489.05 1636.93 6624.42 1687.86C6648.54 1697.24 6672.67 1705.28 6699.47 1711.98C6692.77 1738.79 6687.41 1764.25 6683.39 1789.72C6660.61 1933.13 6686.07 2034.99 6754.43 2073.86C6774.53 2085.92 6798.65 2091.28 6824.12 2091.28C6901.85 2093.96 6998.35 2037.67 7096.19 1943.85ZM7021.14 1762.91C7045.26 1764.25 7070.73 1764.25 7096.19 1764.25C7121.66 1764.25 7147.12 1764.25 7171.25 1762.91C7147.12 1795.08 7121.66 1824.57 7096.19 1852.71C7070.73 1824.57 7045.26 1795.08 7021.14 1762.91ZM6854.95 1624.87C6868.35 1647.65 6880.41 1669.1 6895.15 1690.54C6853.6 1685.18 6814.74 1678.48 6777.21 1670.44C6789.27 1634.25 6802.67 1596.72 6818.76 1559.19C6829.48 1580.64 6841.54 1603.42 6854.95 1624.87ZM6777.21 1301.86C6814.74 1293.82 6853.6 1287.12 6895.15 1281.76C6881.75 1303.2 6868.35 1324.65 6854.95 1347.43C6841.54 1370.22 6829.48 1391.66 6818.76 1414.45C6801.33 1375.58 6787.93 1338.05 6777.21 1301.86ZM6850.92 1485.48C6868.35 1449.29 6887.11 1413.11 6908.56 1376.92C6928.66 1342.07 6951.44 1307.22 6974.23 1272.38C7014.44 1269.7 7054.64 1268.36 7096.19 1268.36C7139.08 1268.36 7179.29 1269.7 7218.16 1272.38C7242.28 1307.22 7263.73 1342.07 7283.83 1376.92C7305.27 1413.11 7324.04 1449.29 7341.46 1485.48C7324.04 1521.67 7305.27 1557.85 7283.83 1594.04C7263.73 1628.89 7240.94 1663.73 7218.16 1698.58C7177.95 1701.26 7137.74 1702.6 7096.19 1702.6C7053.3 1702.6 7013.1 1701.26 6974.23 1698.58C6950.1 1663.73 6928.66 1628.89 6908.56 1594.04C6887.11 1557.85 6868.35 1521.67 6850.92 1485.48ZM7374.97 1413.11L7338.78 1346.09C7325.38 1323.31 7313.32 1301.86 7298.57 1280.42C7340.12 1285.78 7378.99 1292.48 7416.52 1300.52C7404.45 1338.05 7391.05 1375.58 7374.97 1413.11ZM7374.97 1557.85C7391.05 1595.38 7404.45 1632.91 7416.52 1669.1C7378.99 1677.14 7340.12 1683.84 7298.57 1689.2C7311.98 1667.76 7325.38 1646.31 7338.78 1623.53C7350.84 1603.42 7362.91 1580.64 7374.97 1557.85ZM7405.79 2022.93C7395.07 2029.63 7381.67 2032.31 7366.93 2032.31C7301.25 2032.31 7219.5 1978.7 7139.08 1898.28C7177.95 1856.73 7215.48 1809.82 7253 1757.55C7316 1752.19 7376.31 1742.81 7432.6 1729.41C7439.3 1753.53 7443.32 1777.66 7447.34 1801.78C7466.11 1915.7 7451.36 1997.46 7405.79 2022.93ZM7475.49 1316.61C7625.6 1359.49 7715.39 1425.17 7715.39 1485.48C7715.39 1537.75 7653.74 1590.02 7545.18 1631.57C7523.74 1639.61 7499.61 1647.65 7475.49 1654.35C7458.06 1599.4 7436.62 1543.11 7409.81 1485.48C7436.62 1427.85 7459.4 1371.56 7475.49 1316.61ZM7368.27 938.652C7383.01 938.652 7395.07 941.333 7407.13 948.034C7451.36 973.499 7467.45 1053.91 7448.68 1169.18C7444.66 1191.96 7439.3 1216.09 7433.94 1241.55C7377.65 1229.49 7317.34 1220.11 7254.34 1213.41C7218.16 1161.14 7179.29 1114.23 7140.42 1072.68C7220.84 993.603 7302.59 938.652 7368.27 938.652ZM7171.25 1208.05C7147.12 1206.7 7121.66 1206.7 7096.19 1206.7C7070.73 1206.7 7045.26 1206.7 7021.14 1208.05C7045.26 1175.88 7070.73 1146.39 7096.19 1118.25C7121.66 1146.39 7147.12 1177.22 7171.25 1208.05ZM6786.59 948.034C6797.31 941.333 6810.72 938.652 6825.46 938.652C6891.13 938.652 6972.89 992.263 7053.3 1072.68C7014.44 1114.23 6976.91 1161.14 6939.38 1213.41C6876.39 1218.77 6816.08 1228.15 6759.79 1241.55C6753.08 1217.43 6749.06 1193.3 6745.04 1169.18C6726.28 1055.26 6741.02 974.839 6786.59 948.034ZM6716.9 1654.35C6566.79 1611.46 6476.99 1545.79 6476.99 1485.48C6476.99 1433.21 6538.64 1380.94 6647.2 1339.39C6668.65 1331.35 6692.77 1323.31 6716.9 1316.61C6734.32 1371.56 6755.77 1427.85 6782.57 1485.48C6755.77 1543.11 6732.98 1600.74 6716.9 1654.35ZM6745.04 1801.78C6749.06 1779 6754.43 1754.87 6759.79 1729.41C6816.08 1741.47 6876.39 1750.85 6939.38 1757.55C6975.57 1809.82 7014.44 1856.73 7053.3 1898.28C6972.89 1977.36 6891.13 2032.31 6825.46 2032.31C6810.72 2032.31 6798.65 2029.63 6786.59 2022.93C6741.02 1997.46 6726.28 1915.7 6745.04 1801.78ZM6688.75 2353.97C6718.24 2317.78 6719.58 2277.58 6703.5 2237.37C6687.41 2197.16 6653.91 2178.4 6612.36 2177.06C6562.77 2175.72 6511.84 2177.06 6462.25 2177.06H6452.87V2524.18H6493.07V2392.84H6556.07C6564.11 2392.84 6570.81 2395.52 6574.83 2402.22L6655.25 2526.86C6656.59 2529.55 6660.61 2533.57 6663.29 2533.57H6715.56C6683.39 2483.98 6652.57 2437.07 6620.4 2388.82C6648.54 2384.8 6672.67 2375.41 6688.75 2353.97ZM6493.07 2351.29V2218.6H6507.82C6538.64 2218.6 6570.81 2217.26 6601.64 2219.94C6637.82 2221.28 6663.29 2249.43 6663.29 2285.62C6663.29 2321.8 6633.8 2349.95 6597.61 2351.29C6565.45 2352.63 6533.28 2351.29 6493.07 2351.29ZM7011.76 2368.71C6990.31 2274.9 6904.53 2250.77 6838.86 2280.26C6787.93 2303.04 6765.15 2347.27 6763.81 2402.22C6762.47 2443.77 6774.53 2481.3 6806.7 2509.44C6842.88 2541.61 6887.11 2545.63 6932.68 2537.59C6958.15 2532.23 6980.93 2520.16 6998.35 2501.4C6991.65 2492.02 6984.95 2482.64 6978.25 2474.59C6940.72 2506.76 6899.17 2517.48 6853.6 2496.04C6824.12 2481.3 6809.38 2445.11 6806.7 2418.3H7014.44V2400.88C7015.78 2388.82 7014.44 2378.1 7011.76 2368.71ZM6809.38 2390.16C6805.36 2349.95 6845.56 2307.06 6889.79 2307.06C6940.72 2305.72 6972.89 2336.55 6974.23 2390.16H6809.38ZM7220.84 2273.55C7200.73 2269.53 7179.29 2268.19 7159.18 2269.53C7127.02 2272.21 7098.87 2286.96 7076.09 2311.08C7082.79 2320.46 7088.15 2329.85 7096.19 2340.57C7098.87 2337.89 7101.55 2335.21 7104.23 2333.87C7125.68 2313.76 7151.14 2303.04 7181.97 2305.72C7206.09 2307.06 7228.88 2315.1 7235.58 2339.23C7240.94 2357.99 7239.6 2378.1 7240.94 2398.2C7236.92 2398.2 7235.58 2396.86 7234.24 2395.52C7202.07 2368.71 7165.89 2363.35 7127.02 2372.73C7090.83 2382.12 7068.05 2410.26 7065.37 2446.45C7062.69 2488 7081.45 2518.82 7117.64 2533.57C7140.42 2542.95 7165.89 2542.95 7190.01 2537.59C7208.77 2533.57 7216.82 2522.84 7243.62 2508.1V2525.52H7281.15C7281.15 2471.91 7282.49 2406.24 7281.15 2344.59C7281.15 2305.72 7258.36 2281.6 7220.84 2273.55ZM7239.6 2442.43C7238.26 2446.45 7239.6 2450.47 7239.6 2454.49C7239.6 2482.64 7232.9 2492.02 7206.09 2502.74C7187.33 2509.44 7167.23 2512.12 7147.12 2505.42C7124.34 2498.72 7108.26 2478.62 7108.26 2455.83C7106.91 2433.05 7121.66 2410.26 7144.44 2403.56C7175.27 2392.84 7203.41 2399.54 7228.88 2418.3C7236.92 2425 7242.28 2431.71 7239.6 2442.43ZM7448.68 2309.74C7483.53 2299.02 7515.7 2305.72 7539.82 2335.21L7543.84 2337.89C7553.22 2329.85 7561.26 2321.8 7571.99 2312.42C7567.97 2308.4 7566.63 2305.72 7563.94 2301.7C7525.08 2260.15 7448.68 2254.79 7401.77 2288.3C7336.1 2336.55 7337.44 2430.37 7369.61 2479.96C7400.43 2526.86 7444.66 2542.95 7496.93 2536.25C7527.76 2532.23 7553.22 2517.48 7573.33 2492.02C7563.94 2483.98 7554.56 2475.93 7545.18 2466.55C7542.5 2469.23 7541.16 2470.57 7539.82 2473.25C7503.63 2513.46 7443.32 2509.44 7411.15 2466.55C7392.39 2441.09 7388.37 2411.6 7393.73 2382.12C7396.41 2348.61 7413.84 2321.8 7448.68 2309.74ZM7727.46 2492.02C7724.78 2493.36 7723.44 2494.7 7723.44 2494.7C7712.71 2502.74 7701.99 2504.08 7689.93 2500.06C7677.87 2494.7 7676.53 2483.98 7675.19 2473.25V2320.46C7675.19 2317.78 7675.19 2323.14 7676.53 2309.74H7727.46V2269.53H7673.85V2202.52H7633.64V2274.9H7598.79C7596.11 2274.9 7592.09 2277.58 7592.09 2280.26C7590.75 2289.64 7592.09 2296.34 7592.09 2309.74H7634.98V2481.3C7634.98 2502.74 7640.34 2521.5 7659.1 2532.23C7679.21 2544.29 7718.08 2541.61 7735.5 2526.86C7738.18 2525.52 7739.52 2520.16 7739.52 2518.82C7735.5 2510.78 7731.48 2501.4 7727.46 2492.02Z" fill="#61DAFB"/>
<path fill-rule="evenodd" clip-rule="evenodd" d="M4315.14 2534.21L3933.34 2154.84L4144.39 1940.11L4739.65 2534.21H4315.14Z" fill="#02539A"/>
<path fill-rule="evenodd" clip-rule="evenodd" d="M3928.62 2155.14L4307.11 1776.63H4732.6L4143.79 2365.45L3928.62 2155.14Z" fill="#45D1FD" fill-opacity="0.85"/>
<path fill-rule="evenodd" clip-rule="evenodd" d="M3601 1824.99L3815.88 2039.74L4732.58 1123H4304.88L3601 1824.99Z" fill="#45D1FD"/>
<path d="M5738.02 7885.08H5821.16V7556.77L5949.87 7842.99C5965.05 7877.63 5985.84 7889.87 6026.62 7889.87C6067.4 7889.87 6087.39 7877.63 6102.57 7842.99L6231.29 7556.77V7885.08H6314.42V7557.32C6314.42 7525.34 6301.63 7509.86 6275.24 7501.89C6212.08 7482.18 6169.7 7499.24 6150.52 7541.88L6024.21 7824.35L5901.91 7541.86C5883.51 7499.24 5840.34 7482.18 5777.18 7501.87C5750.79 7509.86 5738 7525.32 5738 7557.3L5738.02 7885.08ZM6383.58 7617.83H6466.7V7798.71C6465.93 7808.52 6469.85 7831.59 6515.39 7832.32C6538.62 7832.68 6694.74 7832.32 6696.2 7832.32V7616.94H6779.52C6779.9 7616.94 6779.44 7910.66 6779.44 7911.87C6779.88 7984.32 6689.56 8000.05 6647.91 8001.26H6385.38V7945.32C6385.82 7945.32 6647.73 7945.38 6648.37 7945.3C6701.9 7939.66 6695.57 7913.07 6695.55 7904.12V7882.31H6518.85C6436.64 7881.56 6384.27 7845.68 6383.6 7804.39C6383.56 7800.61 6385.4 7619.65 6383.58 7617.83Z" fill="#00618A"/>
<path d="M6843.62 7885.02H7082.67C7110.66 7885.02 7137.86 7879.17 7159.44 7869.05C7195.4 7852.54 7212.99 7830.16 7212.99 7800.81V7740.06C7212.99 7716.08 7193.01 7693.68 7153.83 7678.78C7133.05 7670.77 7107.45 7666.54 7082.65 7666.54H6981.91C6948.33 7666.54 6932.35 7656.42 6928.36 7634.04C6927.57 7631.37 6927.57 7629.24 6927.57 7626.57V7588.73C6927.57 7586.6 6927.57 7584.46 6928.36 7581.81C6932.35 7564.75 6941.15 7559.95 6970.74 7557.28L6978.73 7556.75H7216.19V7501.35H6982.74C6949.16 7501.35 6931.58 7503.47 6915.59 7508.27C6866.02 7523.73 6844.41 7548.23 6844.41 7590.87V7639.36C6844.41 7676.68 6886.81 7708.65 6957.95 7716.12C6965.96 7716.63 6973.93 7717.19 6981.93 7717.19H7068.29C7071.48 7717.19 7074.68 7717.19 7077.09 7717.7C7103.48 7719.82 7114.65 7724.64 7122.67 7734.21C7127.46 7739.01 7129.04 7743.83 7129.04 7749.13V7797.64C7129.04 7803.48 7125.05 7810.95 7117.06 7817.35C7109.87 7823.74 7097.87 7828.01 7081.89 7829.08L7073.08 7829.61H6843.62V7885.02ZM7731.69 7788.57C7731.69 7845.58 7774.07 7877.55 7859.6 7883.97C7867.59 7884.49 7875.59 7885.02 7883.58 7885.02H8100.25V7829.61H7882C7833.23 7829.61 7814.85 7817.35 7814.85 7788.02V7501.3H7731.71L7731.69 7788.57ZM7266.05 7791.44V7593.83C7266.05 7543.64 7301.31 7513.18 7371.01 7503.57C7378.21 7502.5 7386.25 7501.97 7393.43 7501.97H7551.27C7559.28 7501.97 7566.49 7502.5 7574.48 7503.57C7644.18 7513.18 7679.46 7543.62 7679.46 7593.83V7791.44C7679.46 7832.2 7664.48 7853.98 7629.98 7868.18L7711.9 7942.11H7615.34L7549.08 7882.29L7482.38 7886.52H7393.43C7378.21 7886.52 7362.2 7884.39 7344.58 7879.58C7291.69 7865.17 7266.05 7837.38 7266.05 7791.44ZM7355.79 7786.65C7355.79 7789.32 7356.58 7792.01 7357.39 7795.21C7362.18 7818.18 7383.84 7830.99 7416.67 7830.99H7492.19L7422.82 7768.35H7519.37L7579.87 7822.99C7591.04 7817.02 7598.36 7807.96 7600.93 7796.28C7601.72 7793.61 7601.72 7790.94 7601.72 7788.27V7598.69C7601.72 7596.56 7601.72 7593.87 7600.93 7591.2C7596.12 7569.83 7574.48 7557.56 7542.45 7557.56H7416.65C7379.81 7557.56 7355.77 7573.59 7355.77 7598.69L7355.79 7786.65Z" fill="#E48E00"/>
<path d="M8173.39 7409.39C8122.29 7407.99 8083.25 7412.75 8049.86 7426.81C8040.37 7430.82 8025.25 7430.92 8023.71 7442.8C8028.91 7448.28 8029.72 7456.44 8033.87 7463.16C8041.85 7476.05 8055.3 7493.33 8067.31 7502.38C8080.4 7512.27 8093.92 7522.88 8108 7531.46C8133 7546.72 8160.93 7555.42 8185.03 7570.68C8199.22 7579.7 8213.3 7591.04 8227.17 7601.22C8234.03 7606.22 8238.6 7614.05 8247.53 7617.18V7615.75C8242.85 7609.8 8241.64 7601.62 8237.35 7595.39L8218.44 7576.49C8199.97 7551.96 8176.53 7530.45 8151.58 7512.56C8131.7 7498.29 8087.22 7479 8078.92 7455.87L8077.46 7454.44C8091.55 7452.84 8108.06 7447.74 8121.06 7444.26C8142.91 7438.39 8162.44 7439.91 8185.01 7434.08L8215.53 7425.34V7419.55C8204.14 7407.85 8195.98 7392.35 8183.55 7381.77C8151.03 7354.06 8115.49 7326.38 8078.92 7303.27C8058.64 7290.48 8033.57 7282.16 8012.05 7271.31C8004.85 7267.65 7992.14 7265.77 7987.34 7259.68C7976.03 7245.29 7969.9 7227.05 7961.18 7210.28C7942.96 7175.17 7925.03 7136.8 7908.86 7099.82C7897.85 7074.63 7890.65 7049.78 7876.9 7027.17C7810.91 6918.68 7739.87 6853.19 7629.84 6788.84C7606.42 6775.14 7578.23 6769.76 7548.46 6762.69L7500.49 6759.78C7490.76 6755.71 7480.6 6743.77 7471.43 6737.98C7434.96 6714.95 7341.46 6664.87 7314.46 6730.74C7297.42 6772.31 7339.96 6812.86 7355.16 6833.93C7365.83 6848.7 7379.51 6865.25 7387.14 6881.87C7392.16 6892.8 7393.01 6903.75 7397.32 6915.3C7407.86 6943.75 7417.07 6974.74 7430.73 7001.03C7437.63 7014.34 7445.26 7028.37 7453.99 7040.27C7459.33 7047.55 7468.52 7050.79 7469.95 7062.06C7460.99 7074.61 7460.46 7094.12 7455.42 7110C7432.72 7181.62 7441.28 7270.64 7474.33 7323.64C7484.47 7339.94 7508.35 7374.82 7541.17 7361.43C7569.89 7349.73 7563.5 7313.49 7571.71 7281.49C7573.57 7274.27 7572.42 7268.92 7576.06 7264.07V7265.52L7602.23 7317.84C7621.6 7349.02 7655.94 7381.58 7685.07 7403.58C7700.16 7414.97 7712.06 7434.71 7731.57 7441.36V7439.89H7730.14C7726.33 7434 7720.44 7431.57 7715.59 7426.81C7704.21 7415.66 7691.56 7401.82 7682.17 7389.03C7655.68 7353.09 7632.28 7313.73 7610.95 7272.77C7600.77 7253.22 7591.93 7231.65 7583.35 7211.73C7580.03 7204.06 7580.07 7192.45 7573.19 7188.5C7563.76 7203.07 7549.94 7214.87 7542.65 7232.09C7531.03 7259.61 7529.54 7293.19 7525.22 7328L7522.31 7329.43C7502.05 7324.56 7494.95 7303.71 7487.42 7285.84C7468.4 7240.65 7464.85 7167.86 7481.61 7115.83C7485.94 7102.35 7505.51 7059.96 7497.58 7047.51C7493.79 7035.1 7481.31 7027.94 7474.35 7018.43C7465.7 7006.71 7457.06 6991.29 7451.09 6977.73C7435.51 6942.5 7428.24 6902.94 7411.87 6867.3C7404.02 6850.26 7390.78 6833.04 7379.89 6817.9C7367.85 6801.1 7354.35 6788.76 7345 6768.48C7341.68 6761.28 7337.17 6749.72 7342.09 6742.31C7343.65 6737.32 7345.89 6735.23 7350.83 6733.59C7359.25 6727.1 7382.73 6735.76 7391.51 6739.4C7414.83 6749.09 7434.27 6758.3 7454.03 6771.38C7463.5 6777.67 7473.07 6789.81 7484.55 6793.17H7497.62C7518.08 6797.87 7541.01 6794.61 7560.12 6800.42C7593.91 6810.7 7624.19 6826.66 7651.67 6844.03C7735.44 6896.93 7803.9 6972.21 7850.78 7062.02C7858.31 7076.49 7861.58 7090.27 7868.2 7105.61C7881.6 7136.53 7898.48 7168.37 7911.79 7198.62C7925.09 7228.79 7938.06 7259.25 7956.87 7284.36C7966.74 7297.56 8004.91 7304.64 8022.25 7311.97C8034.42 7317.11 8054.33 7322.47 8065.85 7329.39C8087.85 7342.67 8109.18 7358.47 8129.8 7373C8140.1 7380.33 8171.82 7396.26 8173.39 7409.39ZM7523.77 6855.72C7513.12 6855.52 7505.57 6856.9 7497.6 6858.64V6860.07H7499.06C7504.14 6870.54 7513.1 6877.26 7519.4 6886.24L7533.95 6916.76L7535.38 6915.32C7544.39 6908.99 7548.5 6898.85 7548.46 6883.35C7544.84 6879.54 7544.31 6874.79 7541.19 6870.27C7537.06 6864.2 7529.01 6860.8 7523.77 6855.72Z" fill="#00618A"/>
<path d="M2580 4347.5V5148H4181V3547H2580V4347.5ZM3551.47 4856.22C3558.68 4852.15 3585.56 4836.61 3610.98 4821.86L3657.01 4795.18L3666.68 4809.46C3680.15 4830 3709.57 4858.22 3727.38 4867.62C3778.48 4894.58 3848.59 4890.77 3883.15 4859.75C3889.72 4854.23 3895 4847.34 3898.62 4839.56C3902.24 4831.78 3904.11 4823.31 3904.09 4814.73L3904.03 4811.59V4811.72C3904.03 4793.18 3901.69 4785.04 3892.02 4771.03C3879.61 4753.29 3854.2 4738.34 3782.02 4706.99C3699.43 4671.44 3663.88 4649.36 3631.32 4614.27C3611.31 4591.52 3596.45 4564.71 3587.76 4535.68L3587.36 4534.22C3581.29 4511.6 3579.76 4454.9 3584.56 4432.09C3601.57 4352.24 3661.81 4296.67 3748.73 4280.12C3776.95 4274.79 3842.52 4276.79 3870.21 4283.66C3910.9 4293.8 3941.85 4311.94 3970.34 4341.43C3985.08 4357.17 4006.96 4385.86 4008.69 4392.79C4009.23 4394.8 3939.58 4441.49 3897.42 4467.71C3895.89 4468.71 3889.75 4462.1 3882.95 4451.97C3862.27 4421.95 3840.72 4409.01 3807.7 4406.74C3759.14 4403.4 3727.92 4428.82 3728.18 4471.24L3728.12 4473.71C3728.12 4483.79 3730.65 4493.26 3735.12 4501.53L3734.99 4501.2C3745.66 4523.28 3765.54 4536.55 3827.71 4563.43C3942.38 4612.8 3991.41 4645.29 4021.9 4691.51C4055.92 4743.08 4063.59 4825.47 4040.45 4886.7C4015.1 4953.28 3952.06 4998.51 3863.34 5013.45C3835.92 5018.32 3770.88 5017.59 3741.39 5012.25C3677.09 5000.77 3616.11 4969.02 3578.49 4927.33C3563.75 4911.12 3535 4868.63 3536.8 4865.62C3541.42 4862.09 3546.33 4858.94 3551.47 4856.22ZM2930.75 4351.84C2930.75 4316.21 2931.49 4286.46 2932.49 4285.79C2933.29 4284.73 3060.1 4284.19 3213.8 4284.46L3493.64 4285.26L3494.37 4350.57L3494.9 4416.14H3286.44V5008.25H3139.02V4416.14H2930.75V4351.84Z" fill="#1677C7"/>
<path d="M10890.8 1492.56L10274 1134.1C10235.1 1111.93 10184.5 1111.93 10145.3 1134.1L9521.86 1492.56C9481.71 1515.68 9453.3 1559.12 9453.3 1605.58V2321.55C9453.3 2368.01 9482.45 2411.47 9522.6 2434.7L9687.3 2528.33C9766.03 2567.14 9793.85 2567.14 9829.67 2567.14C9946.23 2567.14 10012.8 2496.6 10012.8 2373.55V1666.72C10012.8 1656.74 10007.6 1641.88 9997.83 1641.88H9919.18C9909.22 1641.88 9886.92 1656.74 9886.92 1666.7V2373.54C9886.92 2428.08 9837.63 2482.36 9745.51 2436.26L9575.32 2338.08C9569.39 2334.86 9565.21 2328.38 9565.21 2321.55V1605.58C9565.21 1598.83 9572.97 1592.06 9578.94 1588.6L10200.3 1230.76C10206.1 1227.47 10214.7 1227.47 10220.5 1230.76L10834.3 1588.52C10840.1 1592.06 10838.1 1598.62 10838.1 1605.58V2321.55C10838.1 2328.38 10840.6 2335.03 10834.8 2338.32L10218.2 2696.37C10212.9 2699.55 10206.3 2699.55 10200.5 2696.37L10042.4 2601.89C10037.6 2599.12 10031.9 2598.12 10027.4 2600.68C9983.36 2625.64 9975.24 2628.96 9933.97 2643.28C9923.81 2646.83 9908.83 2652.97 9939.7 2670.29L10146.7 2792.84C10166.5 2804.32 10189 2810.28 10211.7 2810.28C10234.7 2810.28 10257.2 2804.32 10277 2792.84L10890.8 2434.7C10931 2411.3 10950 2368.01 10950 2321.55V1605.58C10950 1559.12 10931 1515.79 10890.8 1492.56ZM10403.2 2208.09C10239.2 2208.09 10203.1 2162.81 10191 2081.17C10189.6 2072.38 10182.2 2061.87 10173.2 2061.87H10093.1C10083.1 2061.87 10075.2 2073.91 10075.2 2083.79C10075.2 2188.31 10131.9 2314.95 10403.2 2314.95C10599.6 2314.95 10712.2 2238.58 10712.2 2103.43C10712.2 1969.43 10621.7 1934.26 10431.3 1909.04C10238.8 1883.57 10219.2 1870.7 10219.2 1825.57C10219.2 1788.36 10235.8 1738.73 10378.3 1738.73C10505.7 1738.73 10552.6 1766.09 10571.9 1852C10573.6 1860.08 10581 1865.87 10589.3 1865.87H10669.8C10674.7 1865.87 10679.5 1863.87 10682.9 1860.33C10686.3 1856.52 10688.1 1851.75 10687.6 1846.63C10675.1 1698.68 10576.9 1629.73 10378.3 1629.73C10201.6 1629.73 10096.2 1704.4 10096.2 1829.57C10096.2 1965.34 10201.1 2002.86 10370.7 2019.65C10573.6 2039.55 10589.4 2069.23 10589.4 2109.17C10589.4 2178.54 10533.7 2208.09 10403.2 2208.09Z" fill="#83CD29"/>
<path d="M7494.35 4163H7098.85C7064.84 4163 7037.27 4190.57 7037.27 4224.57V5593.43C7037.27 5627.43 7064.84 5655 7098.85 5655H7494.35C7528.35 5655 7555.92 5627.43 7555.92 5593.43V4224.57C7555.92 4190.57 7528.35 4163 7494.35 4163Z" fill="url(#paint0_linear_396_360)"/>
<g filter="url(#filter0_d_396_360)">
<path d="M7250.42 5593.42V5655H7188.84H6793.34C6759.34 5655 6731.77 5627.43 6731.77 5593.42V4596.39C6731.77 4562.38 6759.34 4534.81 6793.34 4534.81H7188.84C7222.85 4534.81 7250.42 4562.38 7250.42 4596.39V5593.42Z" fill="black"/>
</g>
<path d="M7250.42 5593.42V5655H7188.84H6793.34C6759.34 5655 6731.77 5627.43 6731.77 5593.42V4596.39C6731.77 4562.38 6759.34 4534.81 6793.34 4534.81H7188.84C7222.85 4534.81 7250.42 4562.38 7250.42 4596.39V5593.42Z" fill="url(#paint1_linear_396_360)"/>
<path fill-rule="evenodd" clip-rule="evenodd" d="M6949.65 5593.43V5655H6888.07H6492.57C6458.57 5655 6431 5627.43 6431 5593.43V4970.57C6431 4936.57 6458.57 4909 6492.57 4909H6888.07C6922.08 4909 6949.65 4936.57 6949.65 4970.57V5593.43Z" fill="url(#paint2_linear_396_360)"/>
<path d="M10450.7 4099L9851.82 4618.03L9341 5534.76H9801.66L10450.7 4099ZM10530.3 4220.42L10274.8 4940.37L10764.7 5555.74L9814.11 5719H11372L10530.3 4220.42Z" fill="#0072C6"/>
</g>
<defs>
<filter id="filter0_d_396_360" x="6731.77" y="4524.81" width="558.648" height="1160.19" filterUnits="userSpaceOnUse" color-interpolation-filters="sRGB">
<feFlood flood-opacity="0" result="BackgroundImageFix"/>
<feColorMatrix in="SourceAlpha" type="matrix" values="0 0 0 0 0 0 0 0 0 0 0 0 0 0 0 0 0 0 127 0" result="hardAlpha"/>
<feOffset dx="20" dy="10"/>
<feGaussianBlur stdDeviation="10"/>
<feColorMatrix type="matrix" values="0 0 0 0 0 0 0 0 0 0 0 0 0 0 0 0 0 0 0.0530212 0"/>
<feBlend mode="normal" in2="BackgroundImageFix" result="effect1_dropShadow_396_360"/>
<feBlend mode="normal" in="SourceGraphic" in2="effect1_dropShadow_396_360" result="shape"/>
</filter>
<linearGradient id="paint0_linear_396_360" x1="7296.6" y1="4163" x2="7296.6" y2="5655" gradientUnits="userSpaceOnUse">
<stop stop-color="#EBBB14"/>
<stop offset="1" stop-color="#B25400"/>
</linearGradient>
<linearGradient id="paint1_linear_396_360" x1="6991.09" y1="4534.81" x2="6991.09" y2="5655" gradientUnits="userSpaceOnUse">
<stop stop-color="#F9E583"/>
<stop offset="1" stop-color="#DE9800"/>
</linearGradient>
<linearGradient id="paint2_linear_396_360" x1="6690.32" y1="4909" x2="6690.32" y2="5655" gradientUnits="userSpaceOnUse">
<stop stop-color="#F9E68B"/>
<stop offset="1" stop-color="#F3CD32"/>
</linearGradient>
</defs>
</svg>
